<svg width="56" height="56" viewBox="0 0 56 56" fill="none" xmlns="http://www.w3.org/2000/svg">
<g clip-path="url(#clip0_330_446)">
<path d="M50.4 0H5.6C2.50721 0 0 2.50721 0 5.6V50.4C0 53.4928 2.50721 56 5.6 56H50.4C53.4928 56 56 53.4928 56 50.4V5.6C56 2.50721 53.4928 0 50.4 0Z" fill="#241E33"/>
<path d="M27.9995 44.7998L34.7156 24.1299H21.2832L27.9995 44.7998Z" fill="#E24329"/>
<path d="M28.0004 44.7998L21.2841 24.1299H11.8716L28.0004 44.7998Z" fill="#FC6D26"/>
<path d="M11.8722 24.1299L9.83135 30.4114C9.6452 30.9843 9.84902 31.6118 10.3364 31.9658L28.0008 44.7998L11.8722 24.1299Z" fill="#FCA326"/>
<path d="M11.8716 24.1301H21.2841L17.2392 11.6807C17.031 11.04 16.1247 11.0401 15.9167 11.6807L11.8716 24.1301Z" fill="#E24329"/>
<path d="M27.9991 44.7998L34.7153 24.1299H44.1279L27.9991 44.7998Z" fill="#FC6D26"/>
<path d="M44.1276 24.1299L46.1686 30.4114C46.3547 30.9843 46.1508 31.6118 45.6634 31.9658L27.999 44.7998L44.1276 24.1299Z" fill="#FCA326"/>
<path d="M44.1299 24.1301H34.7173L38.7623 11.6807C38.9705 11.04 39.8768 11.0401 40.0848 11.6807L44.1299 24.1301Z" fill="#E24329"/>
</g>
<defs>
<clipPath id="clip0_330_446">
<rect width="56" height="56" fill="white"/>
</clipPath>
</defs>
</svg>
