<svg width="56" height="56" viewBox="0 0 56 56" fill="none" xmlns="http://www.w3.org/2000/svg">
<g clip-path="url(#clip0_330_477)">
<path d="M50.4005 0H5.60049C2.50769 0 0.000488281 2.50721 0.000488281 5.6V50.4C0.000488281 53.4928 2.50769 56 5.60049 56H50.4005C53.4933 56 56.0005 53.4928 56.0005 50.4V5.6C56.0005 2.50721 53.4933 0 50.4005 0Z" fill="#4A154B"/>
<path fill-rule="evenodd" clip-rule="evenodd" d="M20.1585 14.5585C20.1585 12.7032 21.6626 11.1987 23.5182 11.1987C25.3757 11.2005 26.8801 12.7047 26.8785 14.5585C26.8785 16.4141 25.3738 17.9184 23.5182 17.9184C22.6262 17.9175 21.7712 17.563 21.1411 16.9329C20.5111 16.3028 20.1576 15.4488 20.1585 14.5585ZM14.559 20.1583H23.5189C25.3745 20.1583 26.8792 21.6628 26.8792 23.5186C26.8792 25.374 25.3745 26.8785 23.5194 26.8785H14.559C12.7033 26.8785 11.1992 25.374 11.1992 23.5186C11.1992 21.6628 12.7033 20.1583 14.559 20.1583Z" fill="#36C5F0"/>
<path fill-rule="evenodd" clip-rule="evenodd" d="M35.8393 14.5585V23.5187C35.8408 25.3726 34.3364 26.8773 32.4789 26.8792C30.6233 26.8792 29.1191 25.3747 29.1191 23.5182V14.5585C29.1191 12.7032 30.6233 11.1987 32.4789 11.1987C34.3364 11.2005 35.8408 12.7047 35.8393 14.5585ZM41.4382 20.1583C43.2939 20.1583 44.7986 21.6628 44.7986 23.5187C44.8002 25.3726 43.2958 26.8767 41.4382 26.8785C39.5827 26.8785 38.0785 25.3742 38.0785 23.5187C38.0785 21.6628 39.5826 20.1583 41.4382 20.1583Z" fill="#2EB67D"/>
<path fill-rule="evenodd" clip-rule="evenodd" d="M41.4394 35.8399H32.4791C31.5873 35.839 30.7318 35.4839 30.1018 34.8538C29.4717 34.2237 29.1182 33.3697 29.1191 32.4794C29.1191 30.6241 30.6233 29.1196 32.4789 29.1196H41.4388C43.2963 29.1214 44.8007 30.6256 44.7991 32.4794C44.7991 34.3354 43.2944 35.8399 41.4394 35.8399ZM35.8393 41.4395C35.8408 43.2933 34.3364 44.7975 32.4789 44.7994C30.6233 44.7994 29.1193 43.2949 29.1193 41.4395C29.1193 39.584 30.6234 38.0796 32.4789 38.0796C34.3364 38.0815 35.8408 39.5857 35.8393 41.4395Z" fill="#ECB22E"/>
<path fill-rule="evenodd" clip-rule="evenodd" d="M12.1819 34.8538C11.5518 34.2237 11.1983 33.3697 11.1992 32.4794C11.1992 30.6241 12.7033 29.1196 14.559 29.1196C16.4146 29.1196 17.9193 30.6239 17.9193 32.4794C17.9208 34.3332 16.4165 35.8375 14.559 35.8393C13.667 35.8384 12.8119 35.4839 12.1819 34.8538ZM20.1584 41.4391V32.4794C20.1584 30.6241 21.6625 29.1196 23.5181 29.1196C24.4102 29.1203 25.2654 29.4748 25.8956 30.1049C26.5259 30.735 26.8793 31.5891 26.8784 32.4794V41.4396C26.88 43.2935 25.3756 44.7976 23.5181 44.7995C21.6625 44.7995 20.1584 43.295 20.1584 41.4391Z" fill="#E01E5A"/>
</g>
<defs>
<clipPath id="clip0_330_477">
<rect width="56" height="56" fill="white" transform="translate(0.000488281)"/>
</clipPath>
</defs>
</svg>
