<svg width="56" height="56" viewBox="0 0 56 56" fill="none" xmlns="http://www.w3.org/2000/svg">
<path d="M50.4 0H5.6C2.50721 0 0 2.50721 0 5.6V50.4C0 53.4928 2.50721 56 5.6 56H50.4C53.4928 56 56 53.4928 56 50.4V5.6C56 2.50721 53.4928 0 50.4 0Z" fill="white"/>
<path d="M28 44.8006C37.2788 44.8006 44.8003 37.2784 44.8003 28.0002C44.8003 18.722 37.2788 11.2004 28 11.2004C18.7211 11.2004 11.2002 18.7219 11.2002 28.0002C11.2002 37.2785 18.7217 44.8006 28 44.8006Z" fill="#0B5CFF"/>
<path fill-rule="evenodd" clip-rule="evenodd" d="M21.062 32.8027H32.1732V24.6552C32.1732 23.4278 31.1784 22.433 29.951 22.433H18.8398V30.5805C18.8398 31.8079 19.8345 32.8027 21.062 32.8027ZM33.6541 29.8403L38.0986 32.8027V22.4329L33.6548 25.3958L33.6541 29.8403Z" fill="white"/>
</svg>
