<svg width="645" height="620" viewBox="0 0 645 620" fill="none" xmlns="http://www.w3.org/2000/svg">
<mask id="path-1-inside-1_2244_713" fill="white">
<path d="M645 433.975C645 446.352 624.49 453.227 614.401 446.059C597.508 434.057 576.856 427 554.556 427C497.916 427 452 472.916 452 529.556C452 551.856 459.057 572.508 471.059 589.401C478.227 599.49 471.352 620 458.975 620H12C5.37258 620 0 614.627 0 608V12C0 5.37257 5.37258 0 12 0H633C639.627 0 645 5.37258 645 12V433.975Z"/>
</mask>
<path d="M645 433.975C645 446.352 624.49 453.227 614.401 446.059C597.508 434.057 576.856 427 554.556 427C497.916 427 452 472.916 452 529.556C452 551.856 459.057 572.508 471.059 589.401C478.227 599.49 471.352 620 458.975 620H12C5.37258 620 0 614.627 0 608V12C0 5.37257 5.37258 0 12 0H633C639.627 0 645 5.37258 645 12V433.975Z" fill="#050505"/>
<path d="M554.556 427L554.556 426L554.556 426L554.556 427ZM452 529.556L451 529.556V529.556H452ZM471.059 589.401L470.244 589.98L471.059 589.401ZM614.401 446.059L613.822 446.874L614.401 446.059ZM614.401 446.059L614.98 445.244C597.924 433.125 577.07 426 554.556 426V427V428C576.642 428 597.092 434.988 613.822 446.874L614.401 446.059ZM554.556 427L554.556 426C497.364 426 451 472.364 451 529.556L452 529.556L453 529.556C453 473.468 498.468 428 554.556 428L554.556 427ZM452 529.556H451C451 552.07 458.125 572.924 470.244 589.98L471.059 589.401L471.874 588.822C459.988 572.092 453 551.642 453 529.556H452ZM458.975 620V619H12V620V621H458.975V620ZM0 608H1V12H0H-1V608H0ZM12 0V1H633V0V-1H12V0ZM645 12H644V433.975H645H646V12H645ZM633 0V1C639.075 1 644 5.92487 644 12H645H646C646 4.8203 640.18 -1 633 -1V0ZM12 620V619C5.92487 619 1 614.075 1 608H0H-1C-1 615.18 4.8203 621 12 621V620ZM471.059 589.401L470.244 589.98C473.571 594.664 473.709 601.936 471.409 608.136C469.102 614.355 464.55 619 458.975 619V620V621C465.777 621 470.851 615.39 473.284 608.832C475.724 602.255 475.715 594.227 471.874 588.822L471.059 589.401ZM0 12H1C1 5.92486 5.92487 1 12 1V0V-1C4.8203 -1 -1 4.82029 -1 12H0ZM614.401 446.059L613.822 446.874C619.227 450.715 627.255 450.724 633.832 448.284C640.39 445.851 646 440.777 646 433.975H645H644C644 439.55 639.355 444.102 633.136 446.409C626.936 448.709 619.664 448.571 614.98 445.244L614.401 446.059Z" fill="#282926" mask="url(#path-1-inside-1_2244_713)"/>
</svg>
