<svg width="420" height="299" viewBox="0 0 420 299" fill="none" xmlns="http://www.w3.org/2000/svg">
<path d="M145 0C150.523 0 154.905 4.51678 155.898 9.94968C160.58 35.5758 183.022 55 210 55C236.978 55 259.42 35.5758 264.102 9.94968C265.095 4.51678 269.477 0 275 0H410C415.523 0 420 4.47715 420 10V120C420 125.523 415.255 129.793 410.41 132.445C404.207 135.841 400 142.429 400 150C400 157.571 404.207 164.159 410.41 167.555C415.255 170.207 420 174.477 420 180V289C420 294.523 415.523 299 410 299H10C4.47716 299 0 294.523 0 289V180C0 174.477 4.74524 170.207 9.58972 167.555C15.7933 164.159 20 157.571 20 150C20 142.429 15.7933 135.841 9.58971 132.445C4.74523 129.793 0 125.523 0 120V10C0 4.47715 4.47715 0 10 0H145Z" fill="#191A18"/>
</svg>
