<svg width="56" height="56" viewBox="0 0 56 56" fill="none" xmlns="http://www.w3.org/2000/svg">
<g clip-path="url(#clip0_540_831)">
<path d="M50.4 0H5.6C2.50721 0 0 2.50721 0 5.6V50.4C0 53.4928 2.50721 56 5.6 56H50.4C53.4928 56 56 53.4928 56 50.4V5.6C56 2.50721 53.4928 0 50.4 0Z" fill="white"/>
<path fill-rule="evenodd" clip-rule="evenodd" d="M12.8799 37.5888L18.4605 33.3784C21.4251 37.1884 24.5744 38.9458 28.0809 38.9458C31.5872 38.9458 34.6284 37.2098 37.4597 33.4292L43.1194 37.5381C39.0356 42.9894 33.9588 45.8691 28.0809 45.8691C22.2028 45.8691 17.0962 43.0072 12.8799 37.5876V37.5888Z" fill="url(#paint0_linear_540_831)"/>
<path fill-rule="evenodd" clip-rule="evenodd" d="M27.7662 19.2894L17.8341 27.7188L13.2427 22.4747L27.7872 10.1309L42.2167 22.4846L37.6041 27.7108L27.7662 19.2894Z" fill="url(#paint1_linear_540_831)"/>
</g>
<defs>
<linearGradient id="paint0_linear_540_831" x1="12.9903" y1="39.4156" x2="43.2423" y2="39.4156" gradientUnits="userSpaceOnUse">
<stop stop-color="#8930FD"/>
<stop offset="1" stop-color="#49CCF9"/>
</linearGradient>
<linearGradient id="paint1_linear_540_831" x1="13.3577" y1="18.7146" x2="42.3408" y2="18.7146" gradientUnits="userSpaceOnUse">
<stop stop-color="#FF02F0"/>
<stop offset="1" stop-color="#FFC800"/>
</linearGradient>
<clipPath id="clip0_540_831">
<rect width="56" height="56" fill="white"/>
</clipPath>
</defs>
</svg>
