<svg width="56" height="56" viewBox="0 0 56 56" fill="none" xmlns="http://www.w3.org/2000/svg">
<g clip-path="url(#clip0_330_483)">
<path d="M50.399 -0.000976562H5.59902C2.50623 -0.000976562 -0.000976562 2.50623 -0.000976562 5.59902V50.399C-0.000976562 53.4918 2.50623 55.999 5.59902 55.999H50.399C53.4918 55.999 55.999 53.4918 55.999 50.399V5.59902C55.999 2.50623 53.4918 -0.000976562 50.399 -0.000976562Z" fill="#0061FF"/>
<path d="M18.6457 12.2183L9.29395 18.1365L18.6457 24.0546L27.9992 18.1365L18.6457 12.2183Z" fill="white"/>
<path d="M37.3518 12.2183L28 18.1365L37.3518 24.0546L46.7036 18.1365L37.3518 12.2183Z" fill="white"/>
<path d="M9.29395 29.9729L18.6457 35.8911L27.9992 29.9729L18.6457 24.0547L9.29395 29.9729Z" fill="white"/>
<path d="M37.3518 24.0547L28 29.9729L37.3518 35.8911L46.7036 29.9729L37.3518 24.0547Z" fill="white"/>
<path d="M18.6455 37.864L27.999 43.7822L37.3507 37.864L27.999 31.9458L18.6455 37.864Z" fill="white"/>
</g>
<defs>
<clipPath id="clip0_330_483">
<rect width="56" height="56" fill="white"/>
</clipPath>
</defs>
</svg>
