<svg width="56" height="56" viewBox="0 0 56 56" fill="none" xmlns="http://www.w3.org/2000/svg">
<path d="M50.4 0H5.6C2.50721 0 0 2.50721 0 5.6V50.4C0 53.4928 2.50721 56 5.6 56H50.4C53.4928 56 56 53.4928 56 50.4V5.6C56 2.50721 53.4928 0 50.4 0Z" fill="white"/>
<path d="M13.8365 12.649L32.5675 11.2758C34.8682 11.0798 35.4595 11.212 36.9061 12.2558L42.8853 16.4367C43.8715 17.1557 44.1998 17.3517 44.1998 18.1346V41.0641C44.1998 42.5011 43.674 43.3512 41.8336 43.4811L20.0821 44.7881C18.7009 44.8531 18.0431 44.6571 17.3198 43.7421L12.9169 38.0592C12.1271 37.0131 11.7998 36.2302 11.7998 35.3153V14.9338C11.7998 13.7589 12.3256 12.7789 13.8365 12.649Z" fill="white"/>
<path fill-rule="evenodd" clip-rule="evenodd" d="M32.5695 11.2758L13.8385 12.649C12.3276 12.7789 11.8018 13.7589 11.8018 14.9338V35.3153C11.8018 36.2302 12.129 37.0131 12.9188 38.0592L17.3218 43.7421C18.0451 44.6571 18.7029 44.8531 20.084 44.7881L41.8356 43.4811C43.6748 43.3512 44.2018 42.5011 44.2018 41.0641V18.1346C44.2018 17.3921 43.9061 17.1781 43.0362 16.5442C42.9861 16.5085 42.9361 16.4726 42.8861 16.4367L36.908 12.2558C35.4614 11.212 34.8702 11.0798 32.5695 11.2758ZM20.5776 17.7594C18.8016 17.8781 18.3988 17.905 17.39 17.0908L14.8252 15.0659C14.5646 14.8038 14.6955 14.4768 15.3522 14.4118L33.3587 13.1059C34.8707 12.9749 35.6583 13.4979 36.2496 13.9549L39.338 16.1757C39.4699 16.2418 39.7983 16.6327 39.4034 16.6327L20.8079 17.7437L20.5776 17.7594ZM18.5062 40.8681V21.4028C18.5062 20.5527 18.7692 20.1607 19.5567 20.0946L40.9145 18.8537C41.6389 18.7887 41.9662 19.2457 41.9662 20.0946V39.4301C41.9662 40.2801 41.8341 40.9992 40.6516 41.0641L20.2134 42.2401C19.0309 42.3051 18.5062 41.9142 18.5062 40.8681ZM38.6821 22.4465C38.813 23.0344 38.6821 23.6224 38.0897 23.6896L37.1047 23.8833V38.2551C36.2493 38.712 35.4618 38.973 34.8039 38.973C33.7523 38.973 33.4893 38.646 32.7017 37.6671L26.2599 27.6073V37.34L28.2978 37.7981C28.2978 37.7981 28.2978 38.9741 26.6537 38.9741L22.1211 39.2351C21.9891 38.973 22.1211 38.32 22.5803 38.1901L23.7639 37.8642V24.9955L22.1211 24.8633C21.9891 24.2753 22.3174 23.4264 23.2381 23.3603L28.1015 23.0355L34.8039 33.2252V24.2104L33.0955 24.0155C32.9636 23.2953 33.4893 22.7723 34.1461 22.7085L38.6821 22.4465Z" fill="#090D29"/>
</svg>
