<svg width="56" height="56" viewBox="0 0 56 56" fill="none" xmlns="http://www.w3.org/2000/svg">
<g clip-path="url(#clip0_330_441)">
<path d="M50.399 -0.000976562H5.59902C2.50623 -0.000976562 -0.000976562 2.50623 -0.000976562 5.59902V50.399C-0.000976562 53.4918 2.50623 55.999 5.59902 55.999H50.399C53.4918 55.999 55.999 53.4918 55.999 50.399V5.59902C55.999 2.50623 53.4918 -0.000976562 50.399 -0.000976562Z" fill="#000E9C"/>
<path fill-rule="evenodd" clip-rule="evenodd" d="M45.2953 17.6261C49.3018 24.6828 48.5516 33.4047 43.3958 39.7092H32.5057L35.858 33.9168H31.4237L36.6506 24.9176H41.1101L45.2953 17.6359V17.6261ZM23.7893 39.7092H12.6858C7.42945 33.4275 6.66524 24.6349 10.7612 17.5769L17.9636 29.8022L25.9019 16.291H37.5846L23.7943 39.6994L23.7893 39.7092Z" fill="white"/>
</g>
<defs>
<clipPath id="clip0_330_441">
<rect width="56" height="56" fill="white"/>
</clipPath>
</defs>
</svg>
